<mxfile host="app.diagrams.net" modified="2023-04-03T08:38:39.464Z" agent="Mozilla/5.0 (Windows NT 10.0; Win64; x64) AppleWebKit/537.36 (KHTML, like Gecko) Chrome/111.0.0.0 Safari/537.36 Edg/111.0.1661.62" etag="EAbH-HrzVWJQa4XJGwOF" version="21.1.1" type="github">
  <diagram name="第 1 页" id="V6ZWbWmLyhybb35I75xX">
    <mxGraphModel dx="1806" dy="1194" grid="0" gridSize="10" guides="1" tooltips="1" connect="1" arrows="1" fold="1" page="0" pageScale="1" pageWidth="1200" pageHeight="1920" math="0" shadow="0">
      <root>
        <mxCell id="0" />
        <mxCell id="1" parent="0" />
        <mxCell id="XtKHWl-mXtJoPtdo07aP-5" value="" style="edgeStyle=none;curved=1;rounded=0;orthogonalLoop=1;jettySize=auto;html=1;endArrow=open;startSize=14;endSize=14;sourcePerimeterSpacing=8;targetPerimeterSpacing=8;" edge="1" parent="1" source="XtKHWl-mXtJoPtdo07aP-1" target="XtKHWl-mXtJoPtdo07aP-4">
          <mxGeometry relative="1" as="geometry" />
        </mxCell>
        <mxCell id="XtKHWl-mXtJoPtdo07aP-7" value="" style="edgeStyle=none;curved=1;rounded=0;orthogonalLoop=1;jettySize=auto;html=1;endArrow=open;startSize=14;endSize=14;sourcePerimeterSpacing=8;targetPerimeterSpacing=8;" edge="1" parent="1" source="XtKHWl-mXtJoPtdo07aP-1" target="XtKHWl-mXtJoPtdo07aP-6">
          <mxGeometry relative="1" as="geometry" />
        </mxCell>
        <mxCell id="XtKHWl-mXtJoPtdo07aP-1" value="添加監控目標" style="rounded=0;whiteSpace=wrap;html=1;" vertex="1" parent="1">
          <mxGeometry x="-130" y="-101" width="160" height="80" as="geometry" />
        </mxCell>
        <mxCell id="XtKHWl-mXtJoPtdo07aP-9" value="" style="edgeStyle=none;curved=1;rounded=0;orthogonalLoop=1;jettySize=auto;html=1;endArrow=open;startSize=14;endSize=14;sourcePerimeterSpacing=8;targetPerimeterSpacing=8;" edge="1" parent="1" source="XtKHWl-mXtJoPtdo07aP-4" target="XtKHWl-mXtJoPtdo07aP-8">
          <mxGeometry relative="1" as="geometry" />
        </mxCell>
        <mxCell id="XtKHWl-mXtJoPtdo07aP-4" value="私密群組、賬號" style="rounded=0;whiteSpace=wrap;html=1;" vertex="1" parent="1">
          <mxGeometry x="-4" y="78" width="160" height="80" as="geometry" />
        </mxCell>
        <mxCell id="XtKHWl-mXtJoPtdo07aP-6" value="公開專業、賬號、論壇" style="rounded=0;whiteSpace=wrap;html=1;" vertex="1" parent="1">
          <mxGeometry x="-235" y="84" width="160" height="80" as="geometry" />
        </mxCell>
        <mxCell id="XtKHWl-mXtJoPtdo07aP-8" value="添加超級賬號" style="rounded=0;whiteSpace=wrap;html=1;" vertex="1" parent="1">
          <mxGeometry x="-4" y="278" width="160" height="80" as="geometry" />
        </mxCell>
      </root>
    </mxGraphModel>
  </diagram>
</mxfile>
